<mxfile host="app.diagrams.net" modified="2023-10-27T15:37:03.588Z" agent="Mozilla/5.0 (Windows NT 10.0; Win64; x64) AppleWebKit/537.36 (KHTML, like Gecko) Chrome/118.0.0.0 Safari/537.36 Edg/118.0.2088.69" version="22.0.8" etag="1m6YKSUkOZWnlqHCVo-g" type="github">
  <diagram name="Page-1" id="dAogdC-JHbOioMyGgXGz">
    <mxGraphModel>
      <root>
        <mxCell id="0" />
        <mxCell id="1" parent="0" />
      </root>
    </mxGraphModel>
  </diagram>
</mxfile>
